HIERARCHY
ROOT mixamorig:Hips
{
	OFFSET 0.000000 201.639420 0.000000
	CHANNELS 6 Xposition Yposition Zposition Xrotation Yrotation Zrotation
	JOINT mixamorig:Spine
	{
		OFFSET 0.006200 19.524994 -2.481800
		CHANNELS 3 Xrotation Yrotation Zrotation
		JOINT mixamorig:Spine1
		{
			OFFSET -0.000900 22.835007 -2.825400
			CHANNELS 3 Xrotation Yrotation Zrotation
			JOINT mixamorig:Spine2
			{
				OFFSET -0.020600 26.552490 -3.193300
				CHANNELS 3 Xrotation Yrotation Zrotation
				JOINT mixamorig:Neck
				{
					OFFSET -0.060000 30.701813 1.352200
					CHANNELS 3 Xrotation Yrotation Zrotation
					JOINT mixamorig:Head
					{
						OFFSET -0.087200 22.547607 3.670900
						CHANNELS 3 Xrotation Yrotation Zrotation
						JOINT mixamorig:HeadTop_End
						{
							OFFSET -0.830600 40.355194 7.893500
							CHANNELS 3 Xrotation Yrotation Zrotation
							End Site
							{
								OFFSET 0.000000 30.592346 0.000000
							}
						}
						JOINT mixamorig:RightEye
						{
							OFFSET -6.302100 18.118591 16.197100
							CHANNELS 3 Xrotation Yrotation Zrotation
							End Site
							{
								OFFSET 0.000000 30.592346 0.000000
							}
						}
						JOINT mixamorig:LeftEye
						{
							OFFSET 6.741500 18.382690 16.401899
							CHANNELS 3 Xrotation Yrotation Zrotation
							End Site
							{
								OFFSET 0.000000 30.592346 0.000000
							}
						}
					}
				}
				JOINT mixamorig:LeftShoulder
				{
					OFFSET 11.924900 18.230499 1.425400
					CHANNELS 3 Xrotation Yrotation Zrotation
					JOINT mixamorig:LeftArm
					{
						OFFSET 25.435989 -0.697632 -5.229300
						CHANNELS 3 Xrotation Yrotation Zrotation
						JOINT mixamorig:LeftForeArm
						{
							OFFSET 54.684776 0.000000 0.000000
							CHANNELS 3 Xrotation Yrotation Zrotation
							JOINT mixamorig:LeftHand
							{
								OFFSET 55.098175 0.000000 0.000000
								CHANNELS 3 Xrotation Yrotation Zrotation
								JOINT mixamorig:LeftHandMiddle1
								{
									OFFSET 23.369751 0.000000 0.000000
									CHANNELS 3 Xrotation Yrotation Zrotation
									JOINT mixamorig:LeftHandMiddle2
									{
										OFFSET 6.378677 0.000000 0.000000
										CHANNELS 3 Xrotation Yrotation Zrotation
										JOINT mixamorig:LeftHandMiddle3
										{
											OFFSET 6.148331 0.000000 0.000000
											CHANNELS 3 Xrotation Yrotation Zrotation
											JOINT mixamorig:LeftHandMiddle4
											{
												OFFSET 6.582504 0.000000 0.000000
												CHANNELS 3 Xrotation Yrotation Zrotation
												End Site
												{
													OFFSET -1.168900 6.395691 1.028606
												}
											}
										}
									}
								}
								JOINT mixamorig:LeftHandThumb1
								{
									OFFSET 7.235672 -3.848206 5.434273
									CHANNELS 3 Xrotation Yrotation Zrotation
									JOINT mixamorig:LeftHandThumb2
									{
										OFFSET 6.568451 -3.792297 3.792300
										CHANNELS 3 Xrotation Yrotation Zrotation
										JOINT mixamorig:LeftHandThumb3
										{
											OFFSET 6.063080 -3.500519 3.500518
											CHANNELS 3 Xrotation Yrotation Zrotation
											JOINT mixamorig:LeftHandThumb4
											{
												OFFSET 4.793182 -2.767334 2.767349
												CHANNELS 3 Xrotation Yrotation Zrotation
												End Site
												{
													OFFSET 0.101639 6.054260 1.275483
												}
											}
										}
									}
								}
								JOINT mixamorig:LeftHandIndex1
								{
									OFFSET 23.101074 -0.309540 4.992809
									CHANNELS 3 Xrotation Yrotation Zrotation
									JOINT mixamorig:LeftHandIndex2
									{
										OFFSET 6.226883 0.000000 0.000000
										CHANNELS 3 Xrotation Yrotation Zrotation
										JOINT mixamorig:LeftHandIndex3
										{
											OFFSET 6.094330 0.000000 0.000000
											CHANNELS 3 Xrotation Yrotation Zrotation
											JOINT mixamorig:LeftHandIndex4
											{
												OFFSET 5.482605 0.000000 0.000000
												CHANNELS 3 Xrotation Yrotation Zrotation
												End Site
												{
													OFFSET -1.427902 5.233032 0.797164
												}
											}
										}
									}
								}
								JOINT mixamorig:LeftHandRing1
								{
									OFFSET 22.299240 0.021149 -3.964172
									CHANNELS 3 Xrotation Yrotation Zrotation
									JOINT mixamorig:LeftHandRing2
									{
										OFFSET 6.321869 0.000000 0.000000
										CHANNELS 3 Xrotation Yrotation Zrotation
										JOINT mixamorig:LeftHandRing3
										{
											OFFSET 5.899796 0.000000 0.000000
											CHANNELS 3 Xrotation Yrotation Zrotation
											JOINT mixamorig:LeftHandRing4
											{
												OFFSET 6.517899 0.000000 0.000000
												CHANNELS 3 Xrotation Yrotation Zrotation
												End Site
												{
													OFFSET -1.637299 6.232208 0.980890
												}
											}
										}
									}
								}
								JOINT mixamorig:LeftHandPinky1
								{
									OFFSET 20.463791 -0.302338 -8.562233
									CHANNELS 3 Xrotation Yrotation Zrotation
									JOINT mixamorig:LeftHandPinky2
									{
										OFFSET 6.908646 0.000000 0.000000
										CHANNELS 3 Xrotation Yrotation Zrotation
										JOINT mixamorig:LeftHandPinky3
										{
											OFFSET 4.622849 0.000000 0.000000
											CHANNELS 3 Xrotation Yrotation Zrotation
											JOINT mixamorig:LeftHandPinky4
											{
												OFFSET 5.216080 0.000000 0.000000
												CHANNELS 3 Xrotation Yrotation Zrotation
												End Site
												{
													OFFSET -0.606308 5.116241 0.814926
												}
											}
										}
									}
								}
							}
						}
					}
				}
				JOINT mixamorig:RightShoulder
				{
					OFFSET -12.001300 18.284088 1.348900
					CHANNELS 3 Xrotation Yrotation Zrotation
					JOINT mixamorig:RightArm
					{
						OFFSET -25.308500 -0.751312 -5.164599
						CHANNELS 3 Xrotation Yrotation Zrotation
						JOINT mixamorig:RightForeArm
						{
							OFFSET -54.684429 0.000000 0.000000
							CHANNELS 3 Xrotation Yrotation Zrotation
							JOINT mixamorig:RightHand
							{
								OFFSET -55.150291 0.000000 0.000000
								CHANNELS 3 Xrotation Yrotation Zrotation
								JOINT mixamorig:RightHandMiddle1
								{
									OFFSET -23.317566 0.000000 0.000000
									CHANNELS 3 Xrotation Yrotation Zrotation
									JOINT mixamorig:RightHandMiddle2
									{
										OFFSET -6.378403 0.000000 0.000000
										CHANNELS 3 Xrotation Yrotation Zrotation
										JOINT mixamorig:RightHandMiddle3
										{
											OFFSET -6.148193 0.000000 0.000000
											CHANNELS 3 Xrotation Yrotation Zrotation
											JOINT mixamorig:RightHandMiddle4
											{
												OFFSET -6.583389 0.000000 0.000000
												CHANNELS 3 Xrotation Yrotation Zrotation
												End Site
												{
													OFFSET 1.171692 6.395905 1.029786
												}
											}
										}
									}
								}
								JOINT mixamorig:RightHandThumb1
								{
									OFFSET -7.190521 -3.860474 5.435846
									CHANNELS 3 Xrotation Yrotation Zrotation
									JOINT mixamorig:RightHandThumb2
									{
										OFFSET -6.567429 -3.791718 3.791708
										CHANNELS 3 Xrotation Yrotation Zrotation
										JOINT mixamorig:RightHandThumb3
										{
											OFFSET -6.062469 -3.500153 3.500166
											CHANNELS 3 Xrotation Yrotation Zrotation
											JOINT mixamorig:RightHandThumb4
											{
												OFFSET -4.792618 -2.767029 2.767022
												CHANNELS 3 Xrotation Yrotation Zrotation
												End Site
												{
													OFFSET -0.100327 6.053253 1.276754
												}
											}
										}
									}
								}
								JOINT mixamorig:RightHandIndex1
								{
									OFFSET -23.048981 -0.310791 4.992554
									CHANNELS 3 Xrotation Yrotation Zrotation
									JOINT mixamorig:RightHandIndex2
									{
										OFFSET -6.227539 0.000000 0.000000
										CHANNELS 3 Xrotation Yrotation Zrotation
										JOINT mixamorig:RightHandIndex3
										{
											OFFSET -6.095047 0.000000 0.000000
											CHANNELS 3 Xrotation Yrotation Zrotation
											JOINT mixamorig:RightHandIndex4
											{
												OFFSET -5.484772 0.000000 0.000000
												CHANNELS 3 Xrotation Yrotation Zrotation
												End Site
												{
													OFFSET 1.420593 5.237305 0.797056
												}
											}
										}
									}
								}
								JOINT mixamorig:RightHandRing1
								{
									OFFSET -22.246323 0.020569 -3.963762
									CHANNELS 3 Xrotation Yrotation Zrotation
									JOINT mixamorig:RightHandRing2
									{
										OFFSET -6.322128 0.000000 0.000000
										CHANNELS 3 Xrotation Yrotation Zrotation
										JOINT mixamorig:RightHandRing3
										{
											OFFSET -5.900024 0.000000 0.000000
											CHANNELS 3 Xrotation Yrotation Zrotation
											JOINT mixamorig:RightHandRing4
											{
												OFFSET -6.518356 0.000000 0.000000
												CHANNELS 3 Xrotation Yrotation Zrotation
												End Site
												{
													OFFSET 1.636398 6.232697 0.982186
												}
											}
										}
									}
								}
								JOINT mixamorig:RightHandPinky1
								{
									OFFSET -20.411011 -0.303314 -8.561701
									CHANNELS 3 Xrotation Yrotation Zrotation
									JOINT mixamorig:RightHandPinky2
									{
										OFFSET -6.907349 0.000000 0.000000
										CHANNELS 3 Xrotation Yrotation Zrotation
										JOINT mixamorig:RightHandPinky3
										{
											OFFSET -4.623840 0.000000 0.000000
											CHANNELS 3 Xrotation Yrotation Zrotation
											JOINT mixamorig:RightHandPinky4
											{
												OFFSET -5.218353 0.000000 0.000000
												CHANNELS 3 Xrotation Yrotation Zrotation
												End Site
												{
													OFFSET 0.602097 5.118835 0.816273
												}
											}
										}
									}
								}
							}
						}
					}
				}
			}
		}
	}
	JOINT mixamorig:LeftUpLeg
	{
		OFFSET 18.168400 -13.561905 -0.039000
		CHANNELS 3 Xrotation Yrotation Zrotation
		JOINT mixamorig:LeftLeg
		{
			OFFSET 0.577358 -80.825211 -3.695000
			CHANNELS 3 Xrotation Yrotation Zrotation
			JOINT mixamorig:LeftFoot
			{
				OFFSET -0.577356 -83.370262 -6.520700
				CHANNELS 3 Xrotation Yrotation Zrotation
				JOINT mixamorig:LeftToeBase
				{
					OFFSET 0.750401 -20.798306 25.135401
					CHANNELS 3 Xrotation Yrotation Zrotation
					JOINT mixamorig:LeftToe_End
					{
						OFFSET -0.000500 0.001200 19.917799
						CHANNELS 3 Xrotation Yrotation Zrotation
						End Site
						{
							OFFSET 0.000000 19.917805 0.000000
						}
					}
				}
			}
		}
	}
	JOINT mixamorig:RightUpLeg
	{
		OFFSET -18.162500 -13.585098 -0.041000
		CHANNELS 3 Xrotation Yrotation Zrotation
		JOINT mixamorig:RightLeg
		{
			OFFSET -0.595024 -80.945297 -3.631900
			CHANNELS 3 Xrotation Yrotation Zrotation
			JOINT mixamorig:RightFoot
			{
				OFFSET 0.595024 -83.218193 -6.561200
				CHANNELS 3 Xrotation Yrotation Zrotation
				JOINT mixamorig:RightToeBase
				{
					OFFSET -0.753601 -20.807106 25.115000
					CHANNELS 3 Xrotation Yrotation Zrotation
					JOINT mixamorig:RightToe_End
					{
						OFFSET 0.000299 0.001700 19.918200
						CHANNELS 3 Xrotation Yrotation Zrotation
						End Site
						{
							OFFSET 0.000000 19.918203 0.000000
						}
					}
				}
			}
		}
	}
}
MOTION
Frames: 4
Frame Time: 0.033333
98.244896 169.140732 79.282562 -130.665562 70.580853 130.058727 7.565601 0.667969 2.601074 15.066904 1.997724 6.094241 15.066916 1.997726 6.094238 -1.210868 4.063178 -1.861709 -25.203302 21.848846 -6.070349 0.000000 -0.000001 0.000000 0.000000 -0.000001 0.000000 0.000000 -0.000001 0.000000 0.231176 0.319159 9.142500 -82.077386 -12.692497 -22.512595 2.265192 -50.615018 0.305433 -44.862735 17.500304 25.857757 -2.120019 0.138555 -55.198990 -3.897391 -4.610515 -80.251731 0.000003 0.000001 -0.000005 -0.000003 0.000001 0.000001 5.932622 -26.224407 36.391248 3.657951 13.483358 2.129967 0.000014 0.000003 0.000006 -0.000001 -0.000004 -0.000001 -4.168243 5.978098 -43.949361 0.621818 0.873653 -64.880418 0.000004 -0.000006 -0.000011 -0.000002 -0.000002 -0.000004 -3.013061 -0.325850 -66.436000 -4.852023 -4.866174 -89.923320 -0.000000 -0.000006 -0.000000 -0.000001 -0.000000 -0.000000 0.263790 -0.472177 -56.228006 -3.823715 -6.017970 -62.361649 -0.000001 -0.000001 -0.000004 0.000000 -0.000002 -0.000001 -0.189618 0.829609 22.033039 -10.691924 -7.580322 30.821949 -9.739776 58.995943 7.077857 -5.257021 -7.553318 -7.133344 -1.053887 -3.939704 -2.748015 -0.434731 1.631976 24.725539 0.000008 0.000008 0.000007 0.000000 -0.000000 0.000001 -8.829604 21.189270 -25.490338 0.953431 -6.550763 0.745156 -0.000003 -0.000011 0.000001 -0.000002 -0.000004 -0.000000 -7.118891 6.469299 4.456003 -0.096398 0.230754 16.787019 -0.000002 -0.000009 0.000001 0.000002 -0.000003 -0.000002 1.127836 -10.281419 -3.507192 -0.659205 2.448499 24.559388 0.000001 0.000008 0.000011 -0.000000 0.000001 0.000000 4.497587 -12.313356 -10.098439 0.083657 3.663350 19.621848 0.000002 -0.000002 -0.000001 -0.000002 0.000000 0.000001 -33.975489 14.884715 -4.003435 58.337739 -4.550723 -2.319679 -4.857796 -12.204979 19.486405 -1.933590 -0.029295 0.066953 -0.000000 -0.000000 0.000000 -61.893323 9.338203 -10.285823 97.911301 1.527256 3.100962 -12.737951 8.646445 14.324474 -2.673053 -0.113366 0.274489 0.000000 0.000000 0.000001 
102.416290 170.947754 88.035980 -140.912294 59.888417 139.158930 8.522087 0.001293 2.865682 17.023432 0.718211 6.405605 17.023439 0.718220 6.405602 -1.123994 3.735138 -0.573833 -34.728575 19.470583 -0.563020 0.000001 -0.000003 -0.000000 0.000001 -0.000003 -0.000000 0.000001 -0.000003 -0.000000 0.408185 -1.715764 10.160246 -87.725550 -18.343675 -26.406930 2.824360 -45.040788 0.904326 -42.488619 15.511495 22.242682 -2.203389 0.080656 -56.253421 -3.868112 -4.605255 -79.887504 -0.000000 -0.000006 -0.000010 -0.000001 0.000002 0.000003 7.032569 -28.996861 37.740425 3.830084 14.643721 2.174716 0.000014 0.000003 0.000003 0.000001 -0.000003 -0.000000 -4.286183 5.847730 -44.210185 0.631312 0.878921 -65.518569 -0.000003 -0.000006 -0.000007 -0.000001 0.000002 0.000002 -3.077032 -0.317326 -66.725764 -4.847732 -4.866178 -89.872715 0.000002 0.000000 0.000001 -0.000000 0.000002 -0.000001 0.072446 -0.589961 -56.708421 -3.983339 -6.087707 -63.424809 -0.000002 -0.000001 -0.000004 0.000004 0.000002 -0.000000 -0.926765 6.176358 22.105593 -24.536437 -3.597393 30.239614 -12.990169 67.055976 9.208243 -0.411795 -2.361659 -12.287245 -0.980728 -3.353652 -1.491789 -0.479218 1.719703 25.821259 0.000005 0.000010 0.000012 -0.000001 0.000002 -0.000002 -8.432295 21.131700 -21.886149 0.696318 -6.533269 1.317856 -0.000002 -0.000010 0.000004 -0.000002 -0.000002 0.000001 -7.003331 6.536910 4.456047 -0.125470 0.336242 18.355794 -0.000001 -0.000005 0.000001 -0.000000 -0.000001 -0.000001 1.159010 -10.008455 -3.275313 -0.685714 2.494757 25.265396 0.000007 0.000006 0.000012 -0.000000 0.000001 0.000001 4.395864 -12.764390 -11.393515 0.167911 3.745023 19.745891 -0.000003 0.000002 -0.000002 0.000003 0.000000 0.000000 -29.425104 9.499930 -2.278477 59.844792 -4.290774 -2.364685 -5.792425 -17.994881 18.128160 -2.246364 -0.029814 0.067653 0.000000 0.000000 0.000000 -69.263548 6.285685 -10.699857 98.994863 2.268269 3.184469 -14.257109 11.187302 16.849616 -3.499717 -0.106217 0.258031 -0.000001 0.000001 0.000001 
108.500854 173.855057 95.937752 -144.695563 50.571926 141.978022 8.904118 -0.405689 2.992570 17.814926 -0.173429 6.300706 17.814935 -0.173421 6.300707 -1.281770 3.155385 0.681684 -39.501204 15.578774 2.705103 0.000001 0.000000 -0.000001 0.000001 0.000000 -0.000001 0.000001 0.000000 -0.000001 0.620908 -3.743681 11.049288 -91.338774 -25.898069 -30.991389 3.872848 -35.469370 0.202583 -41.430172 10.509055 18.977708 -2.340768 -0.007406 -58.051567 -3.843556 -4.600707 -79.581293 0.000003 -0.000003 -0.000006 -0.000000 0.000001 -0.000003 8.143319 -31.598788 38.853367 3.960644 15.702323 2.262087 0.000018 0.000009 0.000007 0.000004 -0.000005 0.000001 -4.380204 5.704256 -45.611512 0.627133 0.879285 -65.291404 -0.000002 -0.000004 -0.000010 0.000002 0.000003 0.000003 -3.189634 -0.325009 -67.639999 -4.863410 -4.866183 -90.057513 -0.000001 -0.000005 0.000003 -0.000004 -0.000002 -0.000000 -0.277617 -0.830100 -58.203293 -4.080940 -6.127605 -63.881974 -0.000002 -0.000005 -0.000003 -0.000001 0.000001 0.000002 -1.277958 10.990407 19.608262 -37.880352 2.624571 32.480958 -17.358169 74.598254 12.725824 6.094120 1.675302 -15.189975 -0.953886 -2.945528 0.649173 -0.545602 1.842836 27.583147 0.000011 0.000011 0.000012 -0.000001 -0.000000 -0.000001 -7.574325 20.298585 -18.162733 0.427665 -6.519772 1.925725 -0.000003 -0.000009 -0.000000 0.000000 0.000001 0.000001 -6.916903 5.626963 4.590383 -0.159547 0.430449 20.321211 -0.000001 -0.000004 0.000002 0.000002 0.000001 -0.000001 1.274603 -9.156556 -2.711562 -0.719143 2.551897 26.096302 0.000005 0.000008 0.000010 0.000002 -0.000000 0.000000 4.593484 -12.168556 -12.296066 0.184367 3.991743 20.778931 -0.000002 -0.000002 -0.000001 -0.000001 -0.000000 0.000001 -24.618105 4.548938 0.711900 59.996266 -2.319498 -2.280813 -7.706330 -23.095359 15.517792 -3.113791 -0.031077 0.069588 -0.000000 0.000001 0.000000 -76.987727 1.744280 -11.629189 100.036904 3.287388 3.261467 -16.618453 12.306192 20.325910 -3.237112 -0.104935 0.253437 -0.000000 -0.000001 0.000001 
115.797272 179.017334 101.765121 -147.297756 43.667633 144.108508 8.726367 -0.599563 2.994288 17.471424 -0.738090 5.954973 17.471426 -0.738073 5.954970 -1.825485 2.356038 1.187496 -39.812012 11.145823 3.760708 0.000001 0.000001 -0.000000 0.000001 0.000001 -0.000000 0.000001 0.000001 -0.000000 0.787963 -5.250979 10.953667 -94.627387 -30.823100 -38.325749 4.910869 -27.156497 0.204001 -38.849921 5.887891 15.547710 -2.652499 -0.180066 -62.196543 -3.814244 -4.595099 -79.215503 0.000002 -0.000005 -0.000007 -0.000001 0.000000 -0.000000 9.299760 -33.787843 39.631582 4.035563 16.596135 2.396467 0.000016 0.000009 0.000005 0.000003 0.000002 -0.000000 -4.357395 5.599533 -49.565689 0.625708 0.880434 -65.234802 -0.000005 -0.000007 -0.000005 -0.000002 -0.000000 0.000004 -3.459475 -0.379437 -70.608180 -4.896758 -4.866036 -90.450652 -0.000002 -0.000001 -0.000001 0.000001 -0.000000 0.000001 -0.976180 -1.287906 -62.128418 -4.151689 -6.155446 -64.090110 -0.000002 -0.000001 0.000001 0.000002 0.000003 0.000000 -1.025640 14.182504 15.255374 -51.225995 11.052177 36.185683 -22.535318 79.309131 17.718636 13.649628 4.577700 -13.251269 -0.925977 -1.865431 3.168101 -0.638450 1.999530 30.028930 0.000007 0.000014 0.000011 0.000001 -0.000001 -0.000001 -5.387472 19.118562 -16.584997 0.149970 -6.511195 2.564738 -0.000002 -0.000012 0.000002 0.000000 0.000002 0.000000 -6.814046 4.339661 4.453121 -0.197978 0.521369 22.422647 0.000003 -0.000003 -0.000002 0.000002 0.000004 -0.000001 1.511152 -7.344387 -1.225078 -0.785088 2.672706 27.596891 0.000004 0.000006 0.000009 -0.000000 -0.000001 0.000003 4.898208 -11.773925 -11.786367 0.139489 4.356931 22.453087 0.000003 -0.000001 0.000000 0.000000 -0.000003 0.000000 -19.355843 0.956502 3.888438 56.648284 -2.652026 -2.222719 -7.735797 -28.479944 14.196567 -2.847891 -0.030841 0.068966 -0.000000 0.000001 0.000000 -85.509201 -4.108023 -12.821240 101.157492 4.255365 3.293889 -18.046842 11.489045 22.038150 -3.258844 -0.104805 0.253395 -0.000000 -0.000001 -0.000002 
